<svg width="150" height="134" viewBox="0 0 150 134" fill="none" xmlns="http://www.w3.org/2000/svg">
<path d="M3.18179 86.5209C0.82224 83.0184 -0.192076 76.7978 4.1961 73.7322C6.37241 72.2118 9.01435 72.3973 11.3016 73.0663C14.4652 73.9918 17.2786 75.8783 19.7122 77.989C22.5192 80.4236 24.9224 83.2777 27.292 86.1331C29.6314 88.9519 32.0022 91.7379 34.4891 94.4248C39.3904 99.7176 44.6233 104.693 50.1564 109.322C55.5789 113.863 61.2815 118.059 67.2305 121.884C70.184 123.782 73.2006 125.583 76.2804 127.288C79.1398 128.931 82.0972 130.397 85.136 131.678C89.178 133.303 96.1038 135.575 99.6882 131.015C101.589 128.598 101.684 125.317 101.255 122.562C100.736 119.23 99.4275 116.121 98.1384 113.084C92.1425 98.9583 86.0766 84.8663 80.0454 70.7578C78.6377 67.465 77.1881 64.1848 76.0188 60.7816C74.9241 57.5954 74.0128 54.2361 73.9912 50.766C73.9723 47.735 74.6308 44.3147 76.9365 41.9801C78.8487 40.0439 81.5278 39.403 84.0506 39.4177C90.2965 39.4541 96.1651 42.6334 101.016 45.9843C107.043 50.1475 112.367 55.2048 118.37 59.3993C123.218 62.7862 128.919 65.8553 135.106 66.2439C137.478 66.3929 139.995 66.0765 142.156 64.7805C144.222 63.4838 145.726 61.4596 146.373 59.1078C147.183 56.3817 147.082 53.5021 146.652 50.8151C146.115 47.6686 145.14 44.6126 143.757 41.7359C140.832 35.4857 136.835 29.8846 133.393 23.9524C131.705 21.0431 130.057 18.0449 129.005 14.8C128.113 12.051 127.388 8.7972 128.269 5.81661C130.086 -0.333048 137.472 1.981 141.218 3.75618C143.755 5.00276 146.201 6.42722 148.537 8.01889C149.04 8.35142 149.53 7.46927 149.029 7.13829C146.576 5.45914 143.997 3.97245 141.314 2.69155C139.031 1.6468 136.518 0.73545 133.899 0.785542C131.699 0.827612 129.482 1.74906 128.191 3.71716C126.663 6.04577 126.768 9.05636 127.179 11.5546C127.723 14.8583 129.021 17.9102 130.518 20.8141C132.094 23.8723 133.893 26.7965 135.702 29.7076C139.318 35.5247 143.278 41.4095 145.082 48.2007C146.343 52.9513 147.14 60.3713 142.006 63.7615C139.727 65.2665 136.934 65.4843 134.412 65.2008C131.364 64.8582 128.461 63.8452 125.75 62.5728C113.108 56.6393 104.686 44.319 91.2083 39.7628C86.6258 38.2137 80.2131 37.2246 76.1805 41.4137C74.0856 43.5898 73.2454 46.6111 73.0566 49.45C72.8306 52.8503 73.5404 56.1966 74.5051 59.3456C75.5752 62.6456 76.82 65.8865 78.2342 69.0544C79.7451 72.5946 81.2581 76.1339 82.773 79.6722L91.9566 101.155L96.5195 111.829C97.9121 115.086 99.4047 118.36 100.131 121.892C100.725 124.783 100.894 128.762 98.3466 131.088C96.3239 132.936 93.3685 132.85 91.0005 132.421C87.9344 131.866 85.0498 130.652 82.3044 129.312C79.1378 127.767 76.0552 126.053 73.0288 124.27C66.7992 120.595 60.8195 116.512 55.1287 112.048C49.4159 107.573 43.9944 102.738 38.8974 97.5722C36.321 94.961 33.8314 92.2665 31.4286 89.4888C28.9524 86.6249 26.6271 83.6254 24.0625 80.8406C21.7428 78.3218 19.2033 75.9868 16.251 74.2103C13.7858 72.727 10.8716 71.4866 7.83974 71.5843C6.7703 71.6142 5.71912 71.8689 4.75455 72.3317C3.78998 72.7945 2.93362 73.4552 2.24114 74.2707C0.884261 75.9577 0.151084 78.0613 0.165401 80.2262C0.181029 82.6696 0.935008 85.0512 2.32839 87.0584C2.66547 87.5588 3.52036 87.0234 3.18179 86.5209V86.5209Z" fill="#E6E6E6"/>
</svg>
